<svg id="visual" viewBox="0 0 960 540" width="960" height="540" xmlns="http://www.w3.org/2000/svg" xmlns:xlink="http://www.w3.org/1999/xlink" version="1.1"><rect x="0" y="0" width="960" height="540" fill="#ffffff"></rect><defs><linearGradient id="grad1_0" x1="43.8%" y1="0%" x2="100%" y2="100%"><stop offset="14.444444444444446%" stop-color="#ffffff" stop-opacity="1"></stop><stop offset="85.55555555555554%" stop-color="#ffffff" stop-opacity="1"></stop></linearGradient></defs><defs><linearGradient id="grad2_0" x1="0%" y1="0%" x2="56.3%" y2="100%"><stop offset="14.444444444444446%" stop-color="#ffffff" stop-opacity="1"></stop><stop offset="85.55555555555554%" stop-color="#ffffff" stop-opacity="1"></stop></linearGradient></defs><g transform="translate(960, 0)"><path d="M0 324C-46.1 319.8 -92.1 315.7 -120.2 290.1C-148.2 264.5 -158.2 217.5 -189.5 189.5C-220.8 161.5 -273.4 152.4 -299.3 124C-325.3 95.6 -324.6 47.8 -324 0L0 0Z" fill="#1E3B8B"></path></g><g transform="translate(0, 540)"><path d="M0 -324C42.6 -320.2 85.1 -316.4 124 -299.3C162.9 -282.3 198.1 -252.1 217.1 -217.1C236.1 -182.1 238.9 -142.2 254.1 -105.2C269.2 -68.3 296.6 -34.1 324 0L0 0Z" fill="#1E3B8B"></path></g></svg>